<?xml version="1.0" encoding="UTF-8" standalone="no"?>
<!-- Created with Inkscape (http://www.inkscape.org/) -->

<svg
   width="67.423264mm"
   height="68.57309mm"
   viewBox="0 0 67.423264 68.57309"
   version="1.1"
   id="svg5"
   inkscape:version="1.1 (c68e22c387, 2021-05-23)"
   sodipodi:docname="favicon.svg"
   xmlns:inkscape="http://www.inkscape.org/namespaces/inkscape"
   xmlns:sodipodi="http://sodipodi.sourceforge.net/DTD/sodipodi-0.dtd"
   xmlns="http://www.w3.org/2000/svg"
   xmlns:svg="http://www.w3.org/2000/svg">
  <sodipodi:namedview
     id="namedview7"
     pagecolor="#ffffff"
     bordercolor="#111111"
     borderopacity="1"
     inkscape:pageshadow="0"
     inkscape:pageopacity="0"
     inkscape:pagecheckerboard="1"
     inkscape:document-units="mm"
     showgrid="false"
     inkscape:zoom="0.49709596"
     inkscape:cx="250.45466"
     inkscape:cy="143.83541"
     inkscape:window-width="1366"
     inkscape:window-height="715"
     inkscape:window-x="-8"
     inkscape:window-y="-8"
     inkscape:window-maximized="1"
     inkscape:current-layer="layer1" />
  <defs
     id="defs2" />
  <g
     inkscape:label="Capa 1"
     inkscape:groupmode="layer"
     id="layer1"
     transform="translate(-92.216847,-183.35303)">
    <path
       style="fill:#000000;stroke-width:0.264583"
       d="m 123.01813,251.84149 c -4.66011,-0.7504 -8.40009,-2.89883 -10.89895,-6.26089 -2.35619,-3.1701 -4.4301,-8.51709 -5.3816,-13.87487 -0.32964,-1.85622 -0.75289,-2.54258 -0.81577,-1.32292 -0.0274,0.53133 -0.0431,0.53844 -0.14601,0.0661 -0.37391,-1.71579 -1.19889,-4.10105 -1.41841,-4.10105 -0.14133,0 -0.25697,0.16537 -0.25697,0.36748 0,0.20211 -0.14883,0.35449 -0.33073,0.33861 -0.1819,-0.0159 -0.81913,0.12998 -1.41607,0.32413 -0.94126,0.30615 -1.28967,0.29361 -2.624643,-0.0945 -1.253,-0.36426 -1.84284,-0.75127 -3.17115,-2.08067 -1.72356,-1.72498 -2.63605,-3.54832 -2.90417,-5.80312 -0.10376,-0.87253 -0.024,-0.73031 0.35897,0.6402 0.98641,3.52997 2.42942,5.47465 4.89217,6.59295 2.058053,0.93453 4.666453,0.51377 4.666453,-0.75275 0,-0.45603 -0.11308,-0.6039 -0.38272,-0.50043 -0.28858,0.11074 -0.42243,-0.15889 -0.54415,-1.09617 -0.0888,-0.68367 -0.34927,-1.58615 -0.57887,-2.00551 -0.31899,-0.58263 -0.38471,-1.23788 -0.27864,-2.77812 0.0763,-1.10861 0.0824,-1.86683 0.0135,-1.68493 -0.0689,0.1819 -0.22911,0.33073 -0.35598,0.33073 -0.12688,0 0.0637,-0.78224 0.42362,-1.73831 0.35986,-0.95607 0.51436,-1.65182 0.34334,-1.54613 -0.21657,0.13385 -0.26447,0.0144 -0.15781,-0.39347 0.13314,-0.50913 0.0985,-0.54047 -0.26483,-0.23981 -0.63632,0.52649 -1.38014,2.34965 -1.38666,3.39876 -0.003,0.51493 0.21948,1.37813 0.49484,1.91823 0.59361,1.16433 0.38701,1.25933 -0.55323,0.25438 -1.682133,-1.79789 -1.985773,-3.98143 -0.883053,-6.35 0.594553,-1.27704 0.608173,-1.38907 0.16884,-1.38907 -0.82699,0 -2.21248,1.14508 -2.85152,2.35672 -1.60504,3.04321 -0.19596,6.43621 3.551133,8.55094 1.4942,0.84327 1.78766,1.13665 0.73765,0.73744 -3.339103,-1.26953 -5.090803,-3.35691 -5.366253,-6.39463 -0.17192,-1.89595 0.34731,-3.40957 1.66192,-4.8448 0.51016,-0.55696 0.88151,-1.05871 0.82523,-1.11499 -0.0563,-0.0563 -0.65981,-0.11352 -1.34119,-0.1272 -1.52314,-0.0306 -2.42018,0.69332 -2.66661,2.15187 -0.2277,1.34779 0.52125,5.12727 1.33848,6.75445 l 0.66442,1.32291 -0.6693,-0.79375 c -0.36811,-0.43656 -1.02741,-1.78224 -1.46511,-2.99039 -0.8213,-2.267 -0.94667,-2.82262 -0.58672,-2.60016 0.11499,0.0711 0.0967,-0.55007 -0.0406,-1.38031 -0.32932,-1.99124 -0.0557,-3.28892 0.93028,-4.41188 1.20145,-1.36838 2.41782,-1.17013 4.85433,0.79119 1.088103,0.8759 3.189743,2.25718 3.434323,2.25718 0.0757,0 0.13755,-0.22766 0.13755,-0.50591 0,-0.38404 -0.25494,-0.54899 -1.05833,-0.68472 l -1.05833,-0.1788 v -2.4783 -2.47829 l -0.938313,-0.17603 c -1.41634,-0.26571 -3.58303,-0.008 -4.75917,0.56595 -1.32152,0.64494 -2.13191,2.19053 -2.4882,4.74547 l -0.25827,1.85209 0.10938,-1.7198 c 0.23606,-3.71154 1.37969,-5.25452 4.30585,-5.80946 1.41288,-0.26794 3.536783,-0.0287 4.547613,0.5123 1.2067,0.6458 1.69844,0.36105 2.28935,-1.32571 0.53305,-1.52161 0.53548,-1.57447 0.0522,-1.13714 -0.491,0.44434 -0.4983,0.43629 -0.2343,-0.25809 0.4561,-1.19964 1.02126,-2.18878 1.45741,-2.55075 0.46825,-0.38861 0.57062,-0.93605 0.12334,-0.65962 -0.78814,0.4871 0.5712,-1.27494 2.30888,-2.99288 1.06716,-1.05503 1.89088,-1.91823 1.8305,-1.91823 -0.0604,0 -0.42199,0.1187 -0.80358,0.26378 -1.09729,0.41719 -0.55005,-0.13811 1.20158,-1.21928 0.87035,-0.53721 1.54755,-1.01167 1.50488,-1.05434 -0.0427,-0.0427 -0.52073,0.0224 -1.06235,0.14451 -0.54162,0.12216 -0.98476,0.18094 -0.98476,0.13062 0,-0.19555 3.37628,-1.93055 4.63021,-2.37937 0.7276,-0.26043 1.50151,-0.61639 1.71979,-0.79103 0.21828,-0.17463 0.75406,-0.44271 1.19063,-0.59573 l 0.79375,-0.27822 -0.79375,-0.0395 c -0.78121,-0.0389 -0.77703,-0.0456 0.26458,-0.42701 0.58208,-0.21312 2.24896,-0.54469 3.70417,-0.73682 l 2.64583,-0.34934 -1.45521,-0.69716 -1.45521,-0.69716 1.32292,0.006 c 0.7276,0.003 1.95013,0.22272 2.71674,0.48754 l 1.39382,0.48148 0.1773,-0.68856 0.1773,-0.68855 0.15597,0.64184 c 0.24314,1.0006 0.67263,0.92388 1.18466,-0.21161 0.25794,-0.57201 0.9386,-1.49813 1.51257,-2.05805 l 1.04357,-1.01802 -0.52203,1.19063 c -0.531,1.21105 -0.99696,3.175 -0.7533,3.175 0.0737,0 0.97341,-0.35719 1.99932,-0.79375 1.0259,-0.43657 1.92673,-0.79375 2.00183,-0.79375 0.0751,0 -0.34199,0.44648 -0.92687,0.99218 l -1.06343,0.99219 1.93357,0.0232 c 1.14797,0.0138 2.30981,0.19312 2.8596,0.44144 l 0.92605,0.41825 -1.05834,0.0402 -1.05833,0.0402 1.5875,0.62917 c 0.87312,0.34603 1.9972,0.6353 2.49796,0.64281 0.81705,0.0122 0.86179,0.0492 0.43603,0.36056 -0.4305,0.31479 -0.37497,0.37671 0.59978,0.66875 1.13358,0.33963 1.78482,0.88797 0.76606,0.64502 -0.32762,-0.0781 0.1187,0.33274 0.99183,0.91305 0.87312,0.58032 1.88515,1.38588 2.24895,1.79014 l 0.66146,0.73503 -0.66146,-0.32991 c -0.3638,-0.18146 0.36004,0.72512 1.60853,2.01461 1.2485,1.28949 2.47899,2.68318 2.73443,3.09708 0.46229,0.74908 0.46165,0.75167 -0.13973,0.56081 -0.58814,-0.18667 -0.58523,-0.16924 0.10984,0.6568 0.6998,0.83166 0.96199,1.52161 0.46043,1.21163 -0.13947,-0.0862 -0.0309,0.41279 0.2413,1.10887 0.27218,0.69607 0.567,1.48919 0.65515,1.76249 0.17076,0.52938 0.79928,0.51757 3.58698,-0.0674 1.58271,-0.3321 3.80579,0.0515 5.04278,0.87006 1.18025,0.78106 1.80894,2.3487 1.97236,4.91812 l 0.10938,1.7198 -0.25827,-1.85209 c -0.35721,-2.56159 -1.16603,-4.10014 -2.49713,-4.7501 -1.12295,-0.54833 -3.63461,-0.84829 -4.75286,-0.56763 -0.65979,0.1656 -0.6711,0.21101 -0.6711,2.69465 v 2.52622 l 1.12448,-0.91081 c 2.49653,-2.02214 3.70767,-2.23138 4.92048,-0.85007 0.98596,1.12296 1.25959,2.42064 0.93027,4.41188 -0.14469,0.8749 -0.14983,1.44784 -0.0122,1.36279 0.64447,-0.3983 -1.3184,4.7323 -2.20516,5.76389 l -0.7758,0.90252 0.79722,-1.50335 c 0.89806,-1.69352 1.70284,-5.60838 1.42416,-6.92784 -0.30426,-1.44054 -1.07225,-2.01986 -2.67768,-2.01986 -1.53712,0 -1.75211,0.24355 -0.77825,0.88165 0.34695,0.22733 0.94227,1.03831 1.32291,1.80217 1.60017,3.21112 0.36208,6.86705 -3.0112,8.89171 -0.78797,0.47294 -1.61654,0.85877 -1.84126,0.85741 -0.22472,-0.001 0.18984,-0.34574 0.92125,-0.76527 3.65544,-2.09676 5.05644,-5.52654 3.47911,-8.5172 -0.63904,-1.21164 -2.02453,-2.35672 -2.85152,-2.35672 -0.43932,0 -0.42571,0.11203 0.16884,1.38907 0.76007,1.63258 0.8497,3.53665 0.22479,4.77564 -0.54045,1.07152 -1.68216,2.30196 -2.13596,2.30196 -0.22061,0 -0.34738,0.33793 -0.34738,0.92604 0,0.50933 -0.10737,0.92604 -0.2386,0.92604 -0.13124,0 -0.32155,0.71459 -0.42291,1.58798 -0.16806,1.44798 -0.66141,2.51184 -0.66141,1.42625 0,-0.59718 -0.14917,-0.40732 -0.35461,0.45133 -0.13415,0.5607 -0.0412,0.74362 0.5044,0.99219 1.69831,0.7738 4.2016,0.0945 6.15486,-1.67012 1.23884,-1.11922 2.03765,-2.63456 2.70252,-5.12673 0.25854,-0.96906 0.47991,-1.52381 0.49193,-1.23277 0.0337,0.81568 -0.91254,3.71231 -1.54923,4.74249 -0.99158,1.60441 -3.10423,3.28835 -4.71185,3.7557 -1.26042,0.36641 -1.61528,0.37652 -2.54955,0.0727 -0.59694,-0.19415 -1.23417,-0.34002 -1.41607,-0.32413 -0.1819,0.0159 -0.33073,-0.1365 -0.33073,-0.33861 0,-0.20211 -0.10584,-0.36748 -0.2352,-0.36748 -0.12936,0 -0.44601,0.80368 -0.70365,1.78594 -0.53595,2.04325 -0.89226,2.87028 -0.90519,2.10105 -0.016,-0.95339 -0.47164,-0.16319 -0.64069,1.1112 -0.3692,2.78318 -2.03895,8.13124 -3.3959,10.87682 -1.14866,2.32411 -1.72078,3.1263 -3.50089,4.90868 -2.28404,2.28695 -4.23871,3.43894 -7.16406,4.22219 -1.5806,0.42319 -6.70077,0.72798 -8.19295,0.4877 z m 7.40074,-0.75806 c 6.09378,-1.29082 10.41927,-5.68651 12.81755,-13.02553 2.06905,-6.33155 2.42401,-11.20023 0.99442,-13.63964 -0.83796,-1.42988 -2.0058,-2.18803 -5.7061,-3.70437 -2.6717,-1.09484 -3.29058,-1.43569 -2.07901,-1.14503 0.98033,0.23518 0.9182,0.0963 -0.32505,-0.72641 -1.27299,-0.84242 -3.05864,-0.96877 -3.29218,-0.23294 -0.0809,0.25502 -0.41639,0.62907 -0.74544,0.83123 -0.58706,0.36067 -0.58935,0.35752 -0.12239,-0.16798 0.57315,-0.64502 0.39651,-1.7231 -0.44445,-2.71254 l -0.56059,-0.65956 0.58098,0.48916 c 0.56692,0.47733 0.58004,0.4767 0.54219,-0.0258 -0.0292,-0.38759 -0.20564,-0.49641 -0.71328,-0.43987 -0.37096,0.0413 -1.02019,-0.0967 -1.44273,-0.30679 -0.42254,-0.21006 -0.99227,-0.38193 -1.26608,-0.38193 -0.62816,0 -1.84217,0.77948 -1.66372,1.06823 0.20177,0.32647 -0.79598,0.56353 -1.56229,0.3712 -0.37132,-0.0932 -0.64934,-0.29541 -0.61781,-0.44937 0.0315,-0.15395 -0.26554,-0.46752 -0.66015,-0.69682 -0.62146,-0.36111 -0.8339,-0.36874 -1.5875,-0.057 -0.47852,0.19795 -1.29324,0.37231 -1.81051,0.38747 -0.71896,0.0211 -0.94929,0.14444 -0.97786,0.52372 -0.0345,0.45859 -0.002,0.46398 0.43215,0.0712 0.78331,-0.70889 0.97066,-0.47504 0.2425,0.30269 -0.79442,0.8485 -1.14458,1.8009 -0.75145,2.04387 0.15145,0.0936 0.27535,0.29679 0.27535,0.45154 0,0.17742 -0.14661,0.15969 -0.39687,-0.048 -0.21829,-0.18115 -0.39688,-0.47783 -0.39688,-0.65928 0,-0.21389 -0.44199,-0.33819 -1.25677,-0.35346 -1.01991,-0.0191 -1.4313,0.12173 -2.18281,0.74722 -0.83972,0.6989 -0.86438,0.7559 -0.26459,0.61137 1.19682,-0.2884 0.44007,0.10978 -2.64583,1.39217 -2.23373,0.92825 -3.33512,1.55293 -4.1425,2.34954 -2.2511,2.22105 -2.46965,5.58151 -0.77522,11.91974 1.14066,4.26676 2.17055,6.78674 3.73611,9.14167 3.1204,4.69376 7.88444,7.08856 14.14619,7.11104 1.52797,0.005 3.60815,-0.16585 4.62262,-0.38074 z m -10.97262,-10.74147 c 1.53739,-0.25371 10.9222,-0.26376 12.30313,-0.0132 0.58208,0.10563 -2.21589,0.19601 -6.21771,0.20085 -4.02847,0.005 -6.74462,-0.0789 -6.08542,-0.18769 z m -3.30098,-0.76338 c -1.89208,-0.36372 -3.53369,-2.91847 -5.35641,-8.33587 l -0.89021,-2.64584 0.16321,1.5875 c 0.0898,0.87313 0.21205,1.88516 0.27175,2.24896 0.0597,0.3638 -0.0737,0.12568 -0.29647,-0.52916 -0.22276,-0.65485 -0.47751,-2.24568 -0.56611,-3.53519 -0.14546,-2.11704 -0.1947,-2.28393 -0.50751,-1.71979 -0.23915,0.43129 -0.34934,0.4935 -0.35581,0.20087 -0.026,-1.17522 2.44817,-3.48259 4.09167,-3.81582 0.59824,-0.1213 0.42056,0.0476 -0.72136,0.6857 -0.83331,0.46565 -1.4437,0.96218 -1.35642,1.1034 0.27831,0.45032 2.31176,1.24816 3.19651,1.25418 0.46978,0.003 2.37478,-0.25087 4.23333,-0.56459 4.83968,-0.81693 10.54666,-0.80717 15.79598,0.027 3.39321,0.53922 4.12013,0.58225 5.15595,0.30521 1.23334,-0.32987 2.2231,-0.99872 2.00355,-1.35396 -0.0675,-0.10917 -0.67306,-0.4572 -1.34575,-0.77341 -1.42678,-0.67066 -1.41634,-1.03215 0.0126,-0.43511 1.22015,0.50981 2.24807,1.31225 2.84988,2.22476 0.58317,0.88426 0.65431,1.71375 0.0821,0.9572 -0.35296,-0.46666 -0.38969,-0.33227 -0.40198,1.47078 -0.007,1.09141 -0.18385,2.57969 -0.39204,3.3073 l -0.37853,1.32291 0.12389,-1.71979 0.1239,-1.71979 -0.89013,2.57067 c -1.80534,5.21379 -3.32341,7.42762 -5.41564,7.89772 -0.72706,0.16335 -2.02069,0.11441 -4.05001,-0.15325 -3.7681,-0.49698 -6.92566,-0.49533 -10.94281,0.006 -1.74072,0.21712 -3.16947,0.38107 -3.175,0.36433 -0.006,-0.0167 -0.48347,-0.12143 -1.06208,-0.23266 z m 7.69885,-0.97231 c 2.70539,-0.10375 5.33361,-0.0456 7.18563,0.15889 3.51993,0.3887 5.07067,0.20528 6.06639,-0.71752 0.46544,-0.43136 0.61245,-0.71748 0.4043,-0.78687 -0.17991,-0.06 -0.3271,-0.2252 -0.3271,-0.36718 0,-0.14199 0.12428,-0.18135 0.27617,-0.0875 0.93208,0.57606 1.44217,-2.15342 0.67664,-3.62067 -0.24699,-0.47339 -0.27953,-0.79041 -0.0996,-0.97034 0.14698,-0.14698 0.36423,-1.22935 0.48277,-2.40527 0.11855,-1.17591 0.28812,-2.36672 0.37684,-2.64624 0.14667,-0.46213 0.0175,-0.5089 -1.425,-0.5158 -0.87246,-0.004 -2.2764,-0.12733 -3.11987,-0.27368 -5.28261,-0.91662 -10.25005,-0.9559 -15.82108,-0.12509 -1.45521,0.21701 -3.39144,0.40823 -4.30273,0.42493 -1.39128,0.0255 -1.63535,0.0983 -1.5224,0.45415 0.074,0.23308 0.2515,1.34661 0.39451,2.47452 0.143,1.1279 0.38986,2.29337 0.54857,2.58992 0.20872,0.38999 0.20815,0.63609 -0.002,0.88937 -0.33289,0.40109 -0.46316,3.06668 -0.17284,3.53643 0.10637,0.1721 0.41746,0.3129 0.69133,0.3129 0.27386,0 0.56466,0.10796 0.64621,0.23991 0.0815,0.13195 -0.11979,0.17641 -0.44741,0.0988 -0.57274,-0.13567 -0.56818,-0.11254 0.11835,0.60039 0.79276,0.82326 2.33229,1.21041 4.04847,1.01808 0.58209,-0.0652 2.97784,-0.19221 5.32391,-0.28217 z m -1.14197,-1.03942 -0.74235,-0.68732 0.76328,0.55502 c 0.9133,0.66411 1.41483,0.69415 2.2867,0.13696 l 0.65418,-0.41808 -0.62462,0.55037 c -0.82832,0.72985 -1.43966,0.69403 -2.33719,-0.13695 z m 5.41929,0.38869 c 0.53312,-0.15375 1.07057,-0.5799 1.38807,-1.10061 0.28496,-0.46735 0.51855,-0.69174 0.51909,-0.49864 0.002,0.59449 -1.50353,1.89951 -2.16147,1.87401 -0.493,-0.0191 -0.44234,-0.0738 0.25431,-0.27476 z m 2.63754,-0.29669 c -0.34267,-0.32742 -0.4386,-0.46315 -0.21319,-0.30162 0.22541,0.16153 0.64796,0.4258 0.93901,0.58727 0.29104,0.16146 0.38697,0.2972 0.21319,0.30162 -0.17379,0.004 -0.59634,-0.25985 -0.93901,-0.58727 z m -13.69398,0.14303 c 0.21829,-0.0803 0.60524,-0.32744 0.8599,-0.54929 0.41675,-0.36305 0.51486,-0.35645 0.98175,0.0661 0.33882,0.30663 0.79279,0.42922 1.30894,0.35346 0.43462,-0.0638 0.72995,-0.0185 0.65628,0.10073 -0.23187,0.37518 -1.49554,0.23545 -2.0001,-0.22117 -0.45023,-0.40745 -0.51747,-0.40745 -0.9677,0 -0.26612,0.24084 -0.65308,0.42848 -0.8599,0.41699 -0.30434,-0.0169 -0.30036,-0.0487 0.0208,-0.16681 z m 9.36757,-0.40761 -0.50402,-0.59531 0.59531,0.50403 c 0.55944,0.47366 0.71576,0.68659 0.50403,0.68659 -0.0502,0 -0.3181,-0.26789 -0.59532,-0.59531 z m 8.58833,0.18808 c 0.48965,-0.21258 0.9659,-0.3823 1.05834,-0.37714 0.34423,0.0192 -1.17044,0.76558 -1.55174,0.76464 -0.21828,-5.3e-4 0.004,-0.17491 0.4934,-0.3875 z m -19.63481,-0.18808 c 0.0675,-0.10914 0.28718,-0.19844 0.48829,-0.19844 0.2011,0 0.42083,0.0893 0.48829,0.19844 0.0675,0.10914 -0.15228,0.19844 -0.48829,0.19844 -0.33601,0 -0.55574,-0.0893 -0.48829,-0.19844 z m 17.28933,0.28375 c 0,-0.084 0.1628,-0.28792 0.36177,-0.45305 0.27762,-0.23041 0.44687,-0.19179 0.72761,0.16604 0.32326,0.41202 0.31737,0.42852 -0.0506,0.14185 -0.31919,-0.24869 -0.48905,-0.25178 -0.7276,-0.0132 -0.17117,0.17116 -0.31121,0.24244 -0.31121,0.15839 z m -6.99445,-1.08891 c 0.0994,-0.26094 0.24731,-0.40778 0.32877,-0.32632 0.0815,0.0815 1.7e-4,0.29495 -0.18065,0.47443 -0.26131,0.25936 -0.2917,0.22897 -0.14812,-0.14811 z m 4.10081,-2.48323 c -0.009,-0.17151 -0.20387,-0.49893 -0.43255,-0.72761 -0.36477,-0.36477 -0.36661,-0.41577 -0.015,-0.41577 0.22042,0 0.58611,-0.26462 0.81265,-0.58804 0.31888,-0.45527 0.41187,-0.49012 0.41187,-0.15434 0,0.23854 0.32743,0.55328 0.72761,0.69944 l 0.7276,0.26575 -0.86842,0.0209 c -0.64212,0.0155 -0.93078,0.17602 -1.10771,0.6162 -0.1316,0.32743 -0.24683,0.45499 -0.25605,0.28349 z m -8.63858,-0.78849 c -0.424,-0.33927 -0.62208,-0.61744 -0.44018,-0.61816 0.18191,-7.9e-4 0.33338,-0.20967 0.33662,-0.46434 0.005,-0.40027 0.0678,-0.38557 0.46302,0.10853 0.25142,0.31435 0.63914,0.612 0.86159,0.66146 0.35678,0.0793 0.35409,0.13937 -0.0229,0.50963 -0.39062,0.38369 -0.49348,0.36677 -1.1982,-0.19712 z m 4.49974,0.34718 c -0.0923,-0.24062 -0.34623,-0.43749 -0.56422,-0.43749 -0.29582,0 -0.24603,-0.15617 0.19634,-0.61579 l 0.59268,-0.6158 0.55957,0.54965 c 0.30776,0.30231 0.44051,0.59311 0.29499,0.64623 -0.14552,0.0531 -0.41014,0.27976 -0.58804,0.50364 -0.2894,0.3642 -0.34111,0.361 -0.49132,-0.0304 z m -7.85033,-0.54122 c -0.70428,-0.53462 -0.55832,-0.64089 0.44776,-0.32599 0.57734,0.1807 0.79528,0.35849 0.59531,0.48563 -0.41761,0.26551 -0.49953,0.25297 -1.04307,-0.15964 z m 14.88281,0.10373 c -0.31338,-0.20252 -0.25494,-0.25733 0.27781,-0.26053 0.37108,-0.002 0.81757,-0.14693 0.99219,-0.32155 0.23629,-0.23629 0.3175,-0.23867 0.3175,-0.009 0,0.1695 -0.2303,0.43144 -0.51177,0.58208 -0.61498,0.32912 -0.5813,0.32883 -1.07573,0.009 z m -11.64167,-3.68855 c 0,-0.13693 0.1177,-0.32171 0.26156,-0.41062 0.14998,-0.0927 0.19433,0.0135 0.10398,0.24897 -0.17589,0.45837 -0.36554,0.54224 -0.36554,0.16165 z m 4.39492,-0.48813 c -0.62671,-1.21193 -2.10979,-1.50921 -3.34386,-0.67025 -0.6528,0.44379 -0.65316,0.44356 -0.17169,-0.1085 0.60687,-0.69584 1.53919,-0.93872 2.37846,-0.61962 0.66893,0.25432 1.93692,1.79141 1.68534,2.043 -0.0779,0.0779 -0.32462,-0.21218 -0.54825,-0.64463 z m 4.8655,0.53194 c 0,-0.15587 0.30824,-0.64973 0.68498,-1.09746 0.76075,-0.9041 1.92673,-1.0959 2.49556,-0.4105 0.28534,0.34381 0.39784,0.34977 0.76,0.0402 0.79604,-0.6804 1.32394,-0.70831 1.95588,-0.10338 0.3365,0.32211 0.418,0.43683 0.18113,0.25492 -0.58319,-0.44784 -1.70724,-0.41769 -2.10067,0.0564 -0.2814,0.33908 -0.39836,0.33654 -0.94314,-0.0204 -0.90137,-0.5906 -1.73963,-0.36126 -2.42934,0.66464 -0.33242,0.49447 -0.6044,0.77149 -0.6044,0.61562 z m -9.73569,-1.12979 c -0.39565,-0.63352 -1.94917,-0.70582 -2.44068,-0.11358 -0.29915,0.36045 -0.38661,0.35677 -0.81897,-0.0345 -0.34762,-0.3146 -0.72842,-0.38937 -1.35112,-0.26527 l -0.86708,0.17279 0.61945,-0.43478 c 0.58144,-0.40809 0.66332,-0.40234 1.33428,0.0937 0.70059,0.51796 0.72705,0.5186 1.32809,0.0319 0.3373,-0.27312 0.77202,-0.49658 0.96607,-0.49658 0.4334,0 1.89248,1.22277 1.69522,1.42067 -0.0783,0.0785 -0.28764,-0.0899 -0.46526,-0.37437 z m 6.37783,-0.34027 c 0.91743,-0.89417 1.79757,-0.80241 2.82869,0.29491 l 0.66146,0.70392 -0.67851,-0.58784 c -0.82483,-0.71463 -2.23881,-0.77305 -3.02135,-0.12483 -0.30743,0.25466 -0.21306,0.12589 0.20971,-0.28616 z m -13.60922,0.0216 c 0.40122,-0.51159 0.97263,-0.60576 1.2225,-0.20146 0.093,0.15043 -0.0142,0.19406 -0.25234,0.10269 -0.22769,-0.0874 -0.62083,0.003 -0.87364,0.20146 -0.41585,0.326 -0.42505,0.31621 -0.0965,-0.10269 z m 23.75484,-0.26458 c 0.0675,-0.10914 0.34671,-0.19844 0.62056,-0.19844 0.27387,0 0.55313,0.0893 0.62058,0.19844 0.0675,0.10914 -0.2118,0.19844 -0.62058,0.19844 -0.40876,0 -0.68802,-0.0893 -0.62056,-0.19844 z m -15.6513,-6.80477 c 0.58208,-0.12836 1.52933,-0.31179 2.10498,-0.40761 l 1.04665,-0.17422 -1.40094,-0.57311 c -1.46833,-0.60068 -2.35697,-1.63015 -2.06466,-2.3919 0.3154,-0.82191 1.16795,-0.46138 2.15375,0.91079 1.89384,2.63608 3.78789,2.51298 5.61646,-0.36503 0.52077,-0.81965 0.77439,-0.99302 1.35474,-0.92604 0.59313,0.0685 0.69866,0.19439 0.62328,0.74387 -0.12358,0.90086 -0.76516,1.57033 -2.02593,2.11402 l -1.05833,0.45639 1.93551,0.32911 c 1.06453,0.18102 1.89273,0.37189 1.84045,0.42417 -0.0523,0.0523 -1.22091,-0.0257 -2.59696,-0.17332 -1.37605,-0.14761 -3.27582,-0.19962 -4.22171,-0.11559 -4.69412,0.41703 -4.48198,0.40751 -3.30729,0.14847 z m -8.681,-0.47127 c 0.56874,-0.25466 1.55568,-0.90951 2.19319,-1.45521 l 1.1591,-0.99219 h -3.48721 c -3.44616,0 -3.48696,0.007 -3.46632,0.59531 0.0125,0.35649 0.0795,0.44757 0.16686,0.22703 0.0954,-0.24078 0.2697,-0.074 0.50335,0.48168 0.19656,0.46749 0.46275,0.78485 0.59153,0.70526 0.12879,-0.0796 0.44711,0.0906 0.7074,0.37821 0.56734,0.62691 0.38107,0.62007 1.6321,0.0599 z m 28.21692,-0.0847 c 0.2788,-0.39804 0.42113,-0.45227 0.52083,-0.19844 0.0821,0.20899 0.27695,0.002 0.48511,-0.51589 0.20474,-0.50913 0.48656,-0.81198 0.6848,-0.7359 0.37415,0.14357 0.43093,-0.0911 0.13438,-0.55528 -0.2575,-0.40309 -0.48391,-0.42514 -3.98846,-0.38853 l -3.00031,0.0313 1.29189,1.02118 c 1.40397,1.10978 2.67409,1.86193 3.17239,1.87864 0.17365,0.006 0.48837,-0.23588 0.69937,-0.53713 z m 10.11091,-1.16357 c 0.51407,-1.23036 0.47441,-2.42826 -0.12406,-3.74616 -0.49819,-1.0971 -1.24702,-1.91052 -0.89521,-0.97243 0.15422,0.41123 0.12006,0.42903 -0.24847,0.12953 -0.3752,-0.30492 -0.36909,-0.19208 0.0501,0.92604 0.8685,2.3165 0.9371,2.63647 0.48478,2.26107 -0.34183,-0.28369 -0.38278,-0.2267 -0.2867,0.39896 0.34245,2.2298 0.45902,2.34449 1.01954,1.00299 z m -24.046,-3.62358 c 0.66414,-0.64371 1.07941,-0.82884 1.79853,-0.8018 0.96222,0.0362 1.2582,-0.29727 0.5165,-0.58189 -0.89058,-0.34175 -1.90291,-0.15436 -2.3485,0.43471 -0.44905,0.59366 -0.44924,0.59347 -0.0698,-0.0661 0.20925,-0.3638 0.66022,-0.80383 1.00216,-0.97784 l 0.6217,-0.31638 -0.66628,-0.25332 c -0.576,-0.219 -0.65123,-0.38228 -0.55518,-1.20498 0.0869,-0.7443 0.0183,-0.95165 -0.31472,-0.95165 -0.23421,0 -0.43523,0.14883 -0.44671,0.33073 -0.0167,0.26458 -0.0476,0.26458 -0.15434,0 -0.22453,-0.55644 -0.88088,-0.3675 -0.91914,0.26458 l -0.036,0.59532 -0.11466,-0.59532 c -0.18768,-0.9744 -0.60703,-0.67585 -0.60703,0.43217 0,0.83874 -0.10935,1.05871 -0.59531,1.19754 l -0.59531,0.17008 0.69623,0.38196 c 0.38292,0.21008 0.775,0.58725 0.87128,0.83814 0.16468,0.42916 0.14572,0.42963 -0.32019,0.008 -0.56159,-0.50823 -1.4367,-0.57785 -2.19076,-0.17429 -0.76847,0.41127 -0.6379,0.81929 0.16456,0.5142 0.76931,-0.29249 1.793,0.12428 2.56222,1.04315 0.59929,0.71587 0.68027,0.70221 1.70082,-0.28695 z M 112.3025,214.4417 v -1.05833 h -1.05833 -1.05833 v 1.05833 1.05834 h 1.05833 1.05833 z m 4.7625,0 v -1.05833 h -1.05833 -1.05833 v 1.05833 1.05834 h 1.05833 1.05833 z m 19.84375,-0.13229 v -1.19062 h -1.05833 -1.05833 v 1.19062 1.19063 h 1.05833 1.05833 z m 4.76249,-0.0152 v -1.20584 l -1.12447,0.0814 c -1.11902,0.081 -1.12488,0.0868 -1.20584,1.20584 l -0.0814,1.12448 h 1.20584 1.20583 z m -18.65311,-0.64625 c 0.30224,-0.33397 0.35919,-0.52916 0.1544,-0.52916 -0.32936,0 -1.08044,0.63061 -1.08044,0.90714 0,0.31951 0.46752,0.12869 0.92604,-0.37798 z m 6.64289,0.11066 c -0.0883,-0.23019 -0.1606,-0.46831 -0.1606,-0.52917 0,-0.0609 -0.18278,-0.11065 -0.40618,-0.11065 -0.3242,0 -0.34902,0.10681 -0.12299,0.52916 0.33423,0.6245 0.92321,0.71899 0.68977,0.11066 z m -19.73977,-1.69816 v -1.05833 h -1.05833 -1.05833 v 1.05833 1.05834 h 1.05833 1.05833 z m 4.7625,0 v -1.05833 h -1.05833 -1.05833 v 1.05833 1.05834 h 1.05833 1.05833 z m 19.84375,0.03 c 0,-0.92741 -0.0737,-1.03912 -0.75142,-1.13858 -1.1517,-0.16904 -1.36524,0.008 -1.36524,1.1306 0,1.03261 0.004,1.03629 1.05833,1.03629 1.05318,0 1.05833,-0.005 1.05833,-1.02831 z m 4.76249,-0.03 v -1.05833 h -1.05833 -1.05832 v 1.05833 1.05834 h 1.05832 1.05833 z m 11.90626,-1.1393 c 0,-0.18414 -0.22963,-0.3348 -0.51027,-0.3348 -0.28065,0 -0.48901,0.12049 -0.46302,0.26775 0.026,0.14726 -0.22065,0.30862 -0.54807,0.35858 -0.38288,0.0584 -0.59531,0.27501 -0.59531,0.60697 0,0.50784 0.017,0.50745 1.05833,-0.0238 0.58209,-0.29695 1.05834,-0.69058 1.05834,-0.87472 z M 107.54,209.67921 v -1.05833 h -1.05833 -1.05833 v 1.05833 1.05834 h 1.05833 1.05833 z m 4.7625,0 v -1.05833 h -1.05833 -1.05833 v 1.05833 1.05834 h 1.05833 1.05833 z m 19.84375,0 v -1.05833 h -1.05833 -1.05833 v 1.05833 1.05834 h 1.05833 1.05833 z m 4.7625,0 v -1.05833 h -1.05833 -1.05833 v 1.05833 1.05834 h 1.05833 1.05833 z m 0.7771,-3.70384 4.61356,-3.2e-4 -0.74741,-0.78014 c -2.66516,-2.78182 -9.91229,-4.48928 -12.75299,-3.00466 -0.60405,0.3157 -1.15263,0.51964 -1.21906,0.45321 -0.0664,-0.0664 -0.2714,0.0607 -0.45547,0.28249 -0.37066,0.44661 -1.35129,0.52848 -2.05942,0.17194 -0.25269,-0.12722 -0.99521,-0.51127 -1.65006,-0.85344 -3.15137,-1.64663 -10.39352,0.17792 -13.22916,3.33289 l -0.66146,0.73595 11.77396,-0.1688 c 6.47567,-0.0928 13.85006,-0.16894 16.38751,-0.16912 z m -39.161773,19.49372 c -0.69299,-0.36647 -1.52902,-1.14036 -2.07224,-1.91823 l -0.9106,-1.30394 1.17074,1.09571 c 1.48925,1.39382 2.57244,1.93426 4.282713,2.13682 1.00992,0.11961 1.22933,0.21408 0.84567,0.36413 -0.96299,0.37662 -2.149223,0.24266 -3.316283,-0.37449 z m 51.492643,0.38854 c -0.39579,-0.16553 -0.19618,-0.25479 0.84567,-0.37818 1.71302,-0.20288 2.79779,-0.7451 4.27498,-2.13682 l 1.163,-1.09571 -0.82856,1.2329 c -0.4557,0.67809 -1.25667,1.49748 -1.77992,1.82087 -1.02425,0.63303 -2.83654,0.90766 -3.67517,0.55694 z M 93.023197,216.5231 c -0.18269,-0.88447 -0.28225,-1.65802 -0.22126,-1.71901 0.061,-0.061 0.26374,0.60938 0.45056,1.48971 0.18682,0.88033 0.28639,1.65389 0.22126,1.71902 -0.0651,0.0651 -0.26788,-0.60525 -0.45056,-1.48972 z m 65.374473,1.09361 c -0.003,-0.3638 0.0904,-0.95911 0.20691,-1.32291 0.16599,-0.51832 0.21077,-0.54695 0.20691,-0.13229 -0.003,0.29104 -0.0958,0.88635 -0.20691,1.32291 -0.18142,0.71298 -0.20248,0.72644 -0.20691,0.13229 z m 0.49238,-2.53558 c 0.0127,-0.30823 0.0754,-0.37092 0.15985,-0.15986 0.0764,0.191 0.067,0.4192 -0.0209,0.50712 -0.0879,0.0879 -0.15046,-0.0683 -0.13897,-0.34726 z m -66.379723,-1.30087 c 0.005,-0.43657 0.0647,-0.58313 0.13178,-0.3257 0.0671,0.25743 0.0627,0.61462 -0.01,0.79375 -0.0725,0.17913 -0.12736,-0.0315 -0.12197,-0.46805 z m 66.675003,0 c 0.005,-0.43657 0.0647,-0.58313 0.13177,-0.3257 0.0671,0.25743 0.0627,0.61462 -0.01,0.79375 -0.0725,0.17913 -0.12736,-0.0315 -0.12197,-0.46805 z"
       id="path1264" />
  </g>
</svg>
