<?xml version="1.0" encoding="UTF-8" standalone="no"?>
<!-- Created with Inkscape (http://www.inkscape.org/) -->

<svg
   width="123.5257mm"
   height="137.56705mm"
   viewBox="0 0 123.5257 137.56705"
   version="1.1"
   id="svg5"
   inkscape:version="1.1 (c68e22c387, 2021-05-23)"
   sodipodi:docname="favicon1.svg"
   xmlns:inkscape="http://www.inkscape.org/namespaces/inkscape"
   xmlns:sodipodi="http://sodipodi.sourceforge.net/DTD/sodipodi-0.dtd"
   xmlns="http://www.w3.org/2000/svg"
   xmlns:svg="http://www.w3.org/2000/svg">
  <sodipodi:namedview
     id="namedview7"
     pagecolor="#ffffff"
     bordercolor="#111111"
     borderopacity="1"
     inkscape:pageshadow="0"
     inkscape:pageopacity="0"
     inkscape:pagecheckerboard="1"
     inkscape:document-units="mm"
     showgrid="false"
     inkscape:zoom="0.35149992"
     inkscape:cx="433.855"
     inkscape:cy="157.89477"
     inkscape:window-width="1366"
     inkscape:window-height="715"
     inkscape:window-x="-8"
     inkscape:window-y="-8"
     inkscape:window-maximized="1"
     inkscape:current-layer="layer1" />
  <defs
     id="defs2">
    <inkscape:path-effect
       effect="powerstroke"
       id="path-effect987"
       is_visible="true"
       lpeversion="1"
       offset_points="0,4.99214"
       not_jump="false"
       sort_points="true"
       interpolator_type="CubicBezierJohan"
       interpolator_beta="0.2"
       start_linecap_type="zerowidth"
       linejoin_type="extrp_arc"
       miter_limit="4"
       scale_width="1"
       end_linecap_type="zerowidth" />
  </defs>
  <g
     inkscape:label="Capa 1"
     inkscape:groupmode="layer"
     id="layer1"
     transform="translate(-428.76203,-121.07441)">
    <path
       style="fill:#000000;stroke-width:0.264583"
       d="m 498.97981,258.41558 c -2.52726,-0.6099 -3.0294,-1.73828 -2.84097,-6.38408 0.21722,-5.35581 -0.10543,-6.75522 -2.52132,-10.93571 -1.10256,-1.90787 -2.5115,-4.58396 -3.13099,-5.94685 l -1.12634,-2.47798 -3.12769,-0.0356 c -3.01314,-0.0342 -3.20037,-0.0704 -5.11207,-0.988 -1.0914,-0.52384 -2.6145,-1.45333 -3.38465,-2.06554 -3.00932,-2.39214 -6.42535,-7.71152 -8.64782,-13.46623 -0.5151,-1.33376 -1.89726,-5.73091 -3.07148,-9.77144 -2.49215,-8.57564 -3.51133,-11.43188 -5.32764,-14.93077 -2.39555,-4.6147 -6.17985,-8.59773 -9.71643,-10.22669 -3.81907,-1.75908 -9.52941,-0.61277 -12.6895,2.54732 -1.45892,1.45892 -2.06584,2.49905 -2.57659,4.4158 -0.95216,3.57321 0.38722,8.87634 2.89577,11.4655 3.93231,4.05867 10.49875,3.31113 10.50277,-1.19567 0.001,-1.59641 -0.41696,-2.57056 -0.99488,-2.31641 -1.86698,0.82106 -3.73198,0.0402 -4.75882,-1.99235 -1.2629,-2.49988 -0.49605,-5.34563 1.76141,-6.53654 1.58408,-0.83567 4.32775,-0.86022 5.91025,-0.0529 1.79633,0.91642 4.0129,3.22677 4.86448,5.07029 0.67651,1.46453 0.75917,1.93311 0.75917,4.30329 0,2.54064 -0.0445,2.74981 -0.99286,4.66848 -1.74455,3.52941 -4.83605,5.85391 -8.93526,6.71843 -3.14882,0.66408 -4.80191,0.43981 -7.8269,-1.06187 -2.11717,-1.05102 -2.96037,-1.66413 -4.71475,-3.42822 -3.59254,-3.61241 -5.15479,-7.01954 -5.38232,-11.73837 -0.14304,-2.96645 0.18416,-5.22259 1.06495,-7.34326 0.89196,-2.14757 2.74824,-4.76207 4.54665,-6.4038 3.81033,-3.47838 6.42604,-4.36792 12.98008,-4.41421 3.77196,-0.0266 4.43518,0.0372 6.08541,0.58541 5.93951,1.97327 10.90551,7.10021 14.57661,15.04901 1.80556,3.90944 3.98275,10.56979 5.25823,16.08568 1.73713,7.51233 2.35135,9.15808 4.80271,12.86847 1.40477,2.12627 4.08516,4.69113 5.6915,5.4462 1.32906,0.62473 3.38505,0.98723 3.83769,0.67664 0.16505,-0.11324 0.49688,-0.97687 0.73741,-1.91917 0.89431,-3.50352 3.35034,-6.38449 8.09065,-9.49051 1.67349,-1.09653 3.67271,-2.62306 4.44272,-3.39229 2.28576,-2.28346 3.49478,-5.47345 3.49478,-9.22092 v -1.65206 l -4.56407,0.12772 c -3.54495,0.0992 -5.00159,0.0343 -6.52355,-0.29058 -2.12862,-0.45439 -4.8084,-1.60253 -6.17732,-2.64666 -0.78916,-0.60192 -1.09537,-0.65879 -3.54714,-0.65879 -3.93573,0 -6.04157,-0.69558 -7.90772,-2.61198 -1.94508,-1.99746 -2.9817,-5.20676 -2.50083,-7.74239 0.62432,-3.29202 2.60482,-5.19918 5.91451,-5.6955 l 1.17245,-0.17582 -1.6762,-3.21535 c -3.09846,-5.94354 -4.25488,-10.65982 -3.99973,-16.31222 0.17103,-3.78901 0.59234,-5.57851 2.04686,-8.69401 2.30699,-4.94141 5.65116,-8.30766 12.24164,-12.32245 l 0.75079,-0.45736 -1.05189,-0.77357 c -0.57854,-0.42546 -1.25947,-1.211 -1.51317,-1.74564 -0.43657,-0.92001 -0.43694,-1.01728 -0.007,-1.81593 0.60788,-1.12878 1.76137,-1.44312 5.29561,-1.44312 h 2.84099 l -0.85596,-0.97489 c -2.79487,-3.18317 -2.81176,-7.8637 -0.0352,-9.75042 1.23762,-0.84099 2.9791,-0.87577 4.27591,-0.0854 2.57904,1.57183 5.70402,4.9605 7.65788,8.30405 0.59036,1.01024 1.07337,1.63891 1.07337,1.39703 0,-0.58148 2.07673,-0.88053 5.95313,-0.85728 6.82109,0.0409 12.96632,2.56215 18.13928,7.44206 5.45139,5.14256 8.51112,12.11279 9.11293,20.75978 l 0.1778,2.55472 1.23395,-0.55283 c 3.81327,-1.70838 8.27113,0.34967 9.85669,4.55052 0.80219,2.12538 0.62553,4.93107 -0.43295,6.87584 -0.97007,1.78235 -3.13921,3.72655 -5.39367,4.83436 -1.68637,0.82865 -1.78286,0.93022 -2.71064,2.85325 -1.50571,3.12092 -5.97342,7.35618 -10.80779,10.24546 -1.9296,1.15324 -2.11594,1.33603 -1.97256,1.935 0.32678,1.36514 1.92701,3.63111 4.38613,6.2109 2.89276,3.0347 3.28736,3.83721 2.89752,5.89282 -0.73885,3.89588 -2.50874,5.79627 -5.85461,6.28624 l -1.21167,0.17743 0.12113,2.09237 c 0.11148,1.92576 0.19057,2.166 0.9934,3.01724 1.36282,1.44501 2.06937,3.55691 2.08736,6.23919 0.0141,2.10118 -0.0429,2.35087 -0.77855,3.40946 -0.43656,0.62824 -0.99877,1.53366 -1.24934,2.01205 -0.53728,1.02576 -1.42035,1.70397 -2.21869,1.70397 -0.31468,0 -0.75827,0.28405 -0.98574,0.63122 -0.46925,0.71617 -2.42808,1.75003 -3.31572,1.75003 -0.32985,0 -1.49679,0.73066 -2.64106,1.65365 -1.12756,0.9095 -2.30543,1.83224 -2.6175,2.05052 -0.54715,0.3827 -0.5593,0.50158 -0.34035,3.32873 0.32071,4.1411 1.15714,5.87048 3.65289,7.55267 3.97139,2.67681 4.82072,3.64981 4.82072,5.52266 0,1.21538 0.24063,0.91489 -3.76088,4.69646 -0.85952,0.81227 -1.71237,1.38906 -2.0539,1.38906 -0.32123,0 -0.88678,0.23813 -1.25678,0.52917 -0.6481,0.50979 -1.05159,0.52817 -11.02194,0.50208 -5.69207,-0.0149 -10.7064,-0.11328 -11.14296,-0.21864 z m 21.24604,-1.39469 c 0.54588,-0.54588 0.34503,-2.12873 -0.45399,-3.57791 l -0.76191,-1.38187 0.74334,0.38439 c 0.97711,0.50529 1.7763,1.54815 2.15497,2.81204 0.37095,1.23813 0.63055,1.29783 0.85098,0.19569 0.50239,-2.512 -0.17267,-3.80747 -2.81212,-5.39654 -0.97201,-0.58519 -2.1718,-1.45605 -2.66621,-1.93525 l -0.89892,-0.87126 -2.18188,0.41389 c -2.30988,0.43818 -7.82962,0.51647 -13.52099,0.19178 l -3.06319,-0.17475 0.0122,2.51354 c 0.007,1.38244 -0.0263,3.21213 -0.0734,4.06595 -0.0717,1.30007 0.006,1.64414 0.47766,2.11667 0.51278,0.51364 0.93648,0.5773 4.72408,0.70975 8.57359,0.2998 17.13581,0.26739 17.46933,-0.0661 z m 5.08,-4.34606 c 0,-0.85194 -0.47652,-1.98948 -1.12208,-2.67863 -0.98499,-1.05149 0.0619,-0.65941 1.15321,0.43189 0.60869,0.60869 1.02885,1.28244 1.03125,1.65365 0.003,0.50154 0.0552,0.54731 0.26054,0.22956 0.75701,-1.17139 -0.55592,-3.04044 -3.22314,-4.58838 -1.0918,-0.63364 -1.21879,-0.64911 -2.86228,-0.34865 l -1.71979,0.3144 1.97542,1.18684 c 2.15107,1.29236 3.03691,2.35294 3.4994,4.18964 0.27025,1.07326 0.32726,1.13359 0.65181,0.68974 0.19561,-0.26752 0.35566,-0.75354 0.35566,-1.08006 z m 1.57092,-23.69001 c 1.50556,-1.61604 1.41959,-4.3245 -0.22516,-7.09302 -0.62088,-1.04509 -1.07916,-1.94987 -1.01841,-2.01062 0.0607,-0.0608 0.67497,0.43045 1.36494,1.09155 1.49149,1.4291 2.53487,3.51658 2.53846,5.07868 0.003,1.31673 0.52858,1.5145 1.22008,0.45914 0.68647,-1.04768 0.40583,-4.6129 -0.50279,-6.38753 -0.3842,-0.75037 -0.85101,-1.42558 -1.03736,-1.50046 -0.26236,-0.10543 -0.26418,-0.14086 -0.008,-0.15703 0.71899,-0.0454 2.37724,2.01281 2.72972,3.38812 0.45579,1.77839 0.87816,1.35714 0.72751,-0.72557 -0.0892,-1.23339 -0.32673,-1.93397 -1.06063,-3.12855 -0.81058,-1.31937 -1.23656,-1.6977 -2.98191,-2.64831 -2.20235,-1.19952 -3.50064,-2.09695 -4.82247,-3.3335 l -0.84373,-0.78929 -1.78212,0.44766 c -2.08261,0.52313 -4.92424,1.86728 -6.98147,3.30238 l -1.45521,1.01514 0.0302,2.48849 c 0.024,1.97693 0.14623,2.71595 0.59468,3.59498 1.06655,2.09061 3.50472,3.43358 6.72361,3.70344 l 1.79626,0.15059 -0.26634,-0.70053 c -0.35642,-0.93744 -0.15861,-0.88266 0.81439,0.22552 0.44719,0.50932 0.95227,0.92604 1.12241,0.92604 0.18344,0 0.30933,0.42209 0.30933,1.0372 0,1.91181 1.81378,2.85386 3.0141,1.56548 z m 4.21831,-32.88949 c -0.2965,-0.44095 -1.00727,-1.77448 -1.57948,-2.9634 -1.44952,-3.01176 -2.72176,-3.99218 -4.85694,-3.74291 -0.86059,0.10047 -0.93398,0.0444 -1.343,-1.02662 -0.48543,-1.27109 -1.48788,-2.19693 -2.37872,-2.19693 -1.28233,0 -1.72432,1.702 -1.0875,4.18775 l 0.41867,1.63425 -0.90177,1.65306 c -1.53423,2.81243 -1.56202,4.76228 -0.0918,6.43681 0.96871,1.10331 2.47479,1.9256 4.00543,2.1869 1.08612,0.18542 1.14387,0.15378 4.72686,-2.58973 l 3.6273,-2.77744 z m -21.79652,0.27488 c 3.09752,-0.40923 7.76373,-1.29974 7.87956,-1.50375 1.08767,-1.91555 1.48811,-3.11335 1.34095,-4.01106 -0.09,-0.54924 -0.23696,-1.04128 -0.32648,-1.09344 -0.0895,-0.0521 -1.23434,0.18269 -2.54403,0.52188 -2.93631,0.76046 -7.33158,0.85523 -10.39605,0.22416 -2.73581,-0.56339 -6.30606,-1.9622 -9.08492,-3.55944 -1.25568,-0.72174 -2.35161,-1.31225 -2.43541,-1.31225 -0.0838,0 -0.22792,0.40279 -0.32027,0.89509 -0.12953,0.69044 -0.27579,0.86688 -0.63972,0.77171 -1.1449,-0.2994 0.92528,-3.78347 2.24808,-3.78347 0.44457,0 0.5334,0.96565 0.10206,1.10944 -0.38785,0.12928 3.70274,2.37117 5.8876,3.22676 3.5604,1.39424 4.83823,1.61743 9.21467,1.60941 3.67613,-0.007 4.29237,-0.0753 5.94761,-0.66146 1.70558,-0.60402 1.86308,-0.72464 2.06296,-1.57998 0.46249,-1.9792 1.91397,-2.8686 3.6868,-2.25913 0.81346,0.27965 1.02535,0.25989 1.56318,-0.1458 0.34219,-0.25811 0.56442,-0.516 0.49383,-0.57308 -0.0706,-0.0571 -0.54506,-0.38137 -1.05438,-0.72066 -3.54017,-2.35828 -5.22622,-5.71222 -4.21711,-8.3888 0.48124,-1.27643 1.84956,-2.45382 3.36311,-2.89382 2.32497,-0.67589 4.57897,-0.0508 7.13077,1.97763 l 1.38198,1.09851 0.41076,-0.7943 c 0.36658,-0.7089 0.36734,-0.7943 0.007,-0.7943 -0.22728,0 -0.40367,-0.23123 -0.40367,-0.52917 0,-0.45626 0.17639,-0.52917 1.28031,-0.52917 0.98782,0 1.49939,0.16622 2.23931,0.72761 0.52746,0.40018 0.96335,0.8694 0.96865,1.04271 0.0205,0.67017 -0.59608,0.63659 -1.33652,-0.0728 -0.90453,-0.86659 -0.96621,-0.82009 -1.92705,1.45309 -1.11881,2.64689 -3.47443,6.04042 -5.82384,8.38988 l -2.14774,2.14777 0.48738,0.82879 c 0.40918,0.69582 0.64734,0.82879 1.48443,0.82879 0.99352,0 2.68762,0.89665 3.38478,1.79151 0.88597,1.13721 11.24695,-7.7234 12.76865,-10.91964 1.73535,-3.64499 0.0864,-7.34658 -3.95723,-8.88302 -1.46959,-0.5584 -3.97267,-0.67466 -4.81536,-0.22367 -0.29393,0.15731 -0.57895,0.2415 -0.63336,0.18709 -0.0544,-0.0544 0.18307,-0.98694 0.52773,-2.07229 1.31931,-4.15455 1.53341,-9.58528 0.5263,-13.34978 -1.28967,-4.82065 -4.70631,-9.04799 -9.37644,-11.60131 -2.33782,-1.27817 -4.37464,-1.76125 -7.39778,-1.75456 -4.3705,0.01 -7.34317,1.43534 -11.29347,5.41631 l -2.15478,2.17151 -1.94626,-0.50818 c -2.57134,-0.67139 -6.86372,-0.90263 -9.00943,-0.48537 -2.64865,0.51507 -4.83026,1.70074 -6.80461,3.69821 -3.1064,3.14276 -4.72874,6.72694 -4.96842,10.97661 -0.36314,6.43847 2.73341,13.01567 8.42271,17.89016 1.07076,0.91741 1.97998,1.74789 2.0205,1.84552 0.0405,0.0976 -0.42029,0.40024 -1.02402,0.67248 -1.40269,0.63253 -3.15277,2.33497 -3.79654,3.69321 -1.67653,3.53718 -0.0587,7.19957 4.00854,9.07427 0.99644,0.45929 2.46318,0.95112 3.25941,1.09295 2.0513,0.3654 11.96275,0.13904 15.73519,-0.35936 z m -0.01,-17.36535 c -0.44203,-0.12855 -1.14946,-0.59463 -1.57207,-1.03574 l -0.76838,-0.80201 0.52749,-0.72634 c 0.88752,-1.22211 2.87255,-2.0479 4.9244,-2.04863 1.4553,-5.3e-4 1.87972,0.1005 2.33494,0.55572 0.51745,0.51745 0.52973,0.62005 0.17562,1.46756 -0.47825,1.1446 -1.7611,2.23931 -3.04059,2.59466 -1.13698,0.31577 -1.48002,0.31507 -2.58141,-0.005 z m -10.8819,-1.64616 c -0.3152,-0.17674 -0.82438,-0.64182 -1.13152,-1.03349 -0.56067,-0.715 -1.44016,-2.58206 -1.28745,-2.73311 0.0449,-0.0444 0.53046,-0.43712 1.07902,-0.87266 l 0.99738,-0.79189 -0.93123,-0.57554 c -1.13323,-0.70037 -1.16513,-1.13294 -0.15784,-2.14022 2.17384,-2.17385 5.55582,0.62468 5.57079,4.60973 0.007,1.83583 -0.52595,2.89892 -1.74234,3.47613 -1.00802,0.47834 -1.62462,0.49405 -2.39681,0.061 z m 19.85826,-7.04299 c -0.47693,-0.29082 -1.12257,-1.09722 -1.53503,-1.91724 l -0.71188,-1.41529 1.07774,-0.96707 1.07774,-0.96707 -0.93177,-0.57586 c -1.02664,-0.6345 -1.0861,-0.76999 -0.60103,-1.36947 1.21102,-1.49666 3.16526,-1.71196 4.39321,-0.48401 0.92053,0.92054 1.89064,3.30469 1.89064,4.64649 0,2.81848 -2.43023,4.40896 -4.65962,3.04952 z m -32.73773,-11.78729 c -0.32066,-0.83562 -0.16555,-2.38842 0.29543,-2.9575 0.67314,-0.83101 1.46525,-1.15545 2.82099,-1.15545 1.37554,0 1.56068,0.31889 0.45181,0.77821 -0.89212,0.36952 -2.46237,1.94864 -3.00868,3.02565 -0.32182,0.63444 -0.41496,0.68589 -0.55955,0.30909 z m 37.04662,-10.95207 c -0.71569,-0.37068 -1.90748,-0.71359 -2.71198,-0.7803 -0.78936,-0.0655 -1.4352,-0.20489 -1.4352,-0.30983 0,-0.34439 0.94421,-1.05432 1.79817,-1.35202 1.09396,-0.38135 2.61038,0.32261 3.30833,1.53583 0.80383,1.39729 0.51517,1.67 -0.95932,0.90632 z m -38.45324,44.85688 c -0.2332,-0.45094 -0.48334,-1.59917 -0.55589,-2.55164 -0.0725,-0.95246 -0.26524,-1.89952 -0.4282,-2.10458 -0.50418,-0.63439 -2.89002,-1.60624 -3.94994,-1.60895 -0.60394,-0.002 -0.94228,-0.10861 -0.84428,-0.26717 0.28612,-0.46296 3.34964,-0.29379 4.5502,0.25125 l 1.11061,0.50421 0.48907,-0.77242 0.48906,-0.77241 -1.40124,-1.50565 c -0.77069,-0.8281 -1.40124,-1.60299 -1.40124,-1.72198 0,-0.11898 -0.68461,-0.21517 -1.52136,-0.21375 -2.07815,0.004 -4.05087,0.92349 -4.63928,2.16347 -0.70372,1.48299 -0.81828,2.91164 -0.35991,4.4884 0.97139,3.34146 4.33632,5.44722 8.03419,5.02778 l 0.85219,-0.0967 z m 63.67128,-19.39291 c 2.75882,-2.49244 2.87597,-6.75136 0.25581,-9.30028 -0.48729,-0.47404 -1.29317,-0.97432 -1.79084,-1.11174 -1.1564,-0.31929 -3.20283,0.0567 -4.64884,0.85406 -1.08821,0.60009 -1.0888,0.60127 -1.49675,3.01671 l -0.40812,2.41639 1.1428,0.55522 c 1.32711,0.64476 1.39322,0.65659 1.39322,0.24945 0,-0.50901 1.33083,-2.08799 2.21346,-2.62619 0.45609,-0.27811 1.12691,-0.49855 1.49071,-0.48988 0.62686,0.0149 0.6323,0.0276 0.10397,0.24108 -0.80078,0.32362 -2.08828,1.97801 -2.49248,3.20275 -0.31249,0.94685 -0.29325,1.14791 0.1948,2.03566 0.29784,0.54178 0.62095,1.43123 0.71802,1.97656 l 0.1765,0.99151 1.05839,-0.53995 c 0.58212,-0.29697 1.52232,-0.95908 2.08935,-1.47135 z"
       id="path1544" />
  </g>
</svg>
